<svg xmlns="http://www.w3.org/2000/svg" viewBox="0 0 400 300" width="400" height="300">
    <rect width="400" height="300" fill="#F4EFE6"/>
    <g filter="drop-shadow(0 8px 14px rgba(0,0,0,0.18))">
      <g fill="#C2622D" stroke="#9C4A1D" stroke-width="1.5">
        <ellipse cx="80" cy="140" rx="10" ry="32"/>
        <ellipse cx="98" cy="140" rx="10" ry="32"/>
        <ellipse cx="116" cy="140" rx="10" ry="32"/>
        <ellipse cx="134" cy="140" rx="10" ry="32"/>
        <ellipse cx="152" cy="140" rx="10" ry="32"/>
        <ellipse cx="170" cy="140" rx="10" ry="32"/>
        <ellipse cx="188" cy="140" rx="10" ry="32"/>
        <ellipse cx="206" cy="140" rx="10" ry="32"/>
      </g>
      <path d="M216 140 L260 140" stroke="#C2622D" stroke-width="16" stroke-linecap="round"/>
      <rect x="260" y="126" width="30" height="28" rx="4" fill="#CBD5E1" stroke="#64748B" stroke-width="1.5"/>
      <rect x="270" y="122" width="10" height="36" rx="2" fill="#94A3B8"/>
      <circle cx="275" cy="132" r="2" fill="#334155"/>
      <circle cx="275" cy="148" r="2" fill="#334155"/>
      <rect x="290" y="128" width="22" height="24" rx="3" fill="#E2E8F0" stroke="#64748B" stroke-width="1.5"/>
      <path d="M312 140 L360 140" stroke="#C2622D" stroke-width="14" stroke-linecap="round"/>
      <rect x="40" y="132" width="25" height="16" rx="3" fill="#211E1B"/>
      <rect x="28" y="135" width="14" height="10" rx="2" fill="#E2C178"/>
    </g>
    <text x="200" y="265" font-family="monospace" font-size="11" font-weight="bold" fill="#9C4A1D" text-anchor="middle">ВИТОЙ АВИАТОР-КАБЕЛЬ TYPE-C GX16 (AMBER)</text>
  </svg>