<svg xmlns="http://www.w3.org/2000/svg" viewBox="0 0 400 300" width="400" height="300">
    <rect width="400" height="300" fill="#EFE8DA"/>
    <g filter="drop-shadow(0 8px 16px rgba(0,0,0,0.2))">
      <rect x="40" y="60" width="320" height="175" rx="10" fill="#213243" stroke="#15202B" stroke-width="3"/>
      <rect x="43" y="63" width="314" height="169" rx="8" fill="none" stroke="#3A526A" stroke-width="1.5" stroke-dasharray="4,2"/>
      <g stroke="#2C435A" stroke-width="0.8">
        <line x1="40" y1="95" x2="360" y2="95"/>
        <line x1="40" y1="130" x2="360" y2="130"/>
        <line x1="40" y1="165" x2="360" y2="165"/>
        <line x1="40" y1="200" x2="360" y2="200"/>
        <line x1="100" y1="60" x2="100" y2="235"/>
        <line x1="160" y1="60" x2="160" y2="235"/>
        <line x1="220" y1="60" x2="220" y2="235"/>
        <line x1="280" y1="60" x2="280" y2="235"/>
      </g>
      <g stroke="#89B4D4" stroke-width="1.2" fill="none">
        <rect x="170" y="110" width="60" height="50" rx="3"/>
        <path d="M175 110 L185 85 L215 85 L225 110"/>
        <line x1="200" y1="70" x2="200" y2="95"/>
        <line x1="188" y1="80" x2="212" y2="80"/>
        <line x1="155" y1="110" x2="155" y2="160" stroke="#E2C178" stroke-dasharray="2,2"/>
        <text x="150" y="138" font-family="monospace" font-size="8" fill="#E2C178" text-anchor="end">14.0 mm</text>
        <line x1="170" y1="170" x2="230" y2="170" stroke="#E2C178" stroke-dasharray="2,2"/>
        <text x="200" y="182" font-family="monospace" font-size="8" fill="#E2C178" text-anchor="middle">15.6 mm</text>
      </g>
      <rect x="260" y="185" width="90" height="40" fill="#182533" stroke="#3A526A" stroke-width="1"/>
      <text x="305" y="200" font-family="monospace" font-size="7" font-weight="bold" fill="#89B4D4" text-anchor="middle">MX SWITCH BLUEPRINT</text>
      <text x="305" y="215" font-family="monospace" font-size="6" fill="#5F83A3" text-anchor="middle">900x400x4MM SPEED-CONTROL</text>
    </g>
    <text x="200" y="270" font-family="monospace" font-size="11" font-weight="bold" fill="#3A526A" text-anchor="middle">КОВРИК «RETRO SCHEMATIC» 900x400x4MM</text>
  </svg>