<svg xmlns="http://www.w3.org/2000/svg" viewBox="0 0 520 140" width="520" height="140">
  <defs>
    <linearGradient id="swBase" x1="0%" y1="0%" x2="0%" y2="100%">
      <stop offset="0%" stop-color="#2D2A28"/>
      <stop offset="100%" stop-color="#181615"/>
    </linearGradient>
  </defs>
  <rect width="520" height="140" rx="10" fill="#1C1B19" stroke="#33302C" stroke-width="1.5"/>
  <g fill="url(#swBase)" stroke="#100F0E" stroke-width="0.8">
    <g transform="translate(15, 12)">
      <rect x="0" y="0" width="22" height="18" rx="3"/><circle cx="11" cy="9" r="3" fill="#E2C178"/><path d="M9 9 L13 9 M11 7 L11 11" stroke="#000" stroke-width="1.2"/>
      <rect x="28" y="0" width="22" height="18" rx="3"/><circle cx="39" cy="9" r="3" fill="#E2C178"/>
      <rect x="53" y="0" width="22" height="18" rx="3"/><circle cx="64" cy="9" r="3" fill="#E2C178"/>
      <rect x="78" y="0" width="22" height="18" rx="3"/><circle cx="89" cy="9" r="3" fill="#E2C178"/>
      <rect x="103" y="0" width="22" height="18" rx="3"/><circle cx="114" cy="9" r="3" fill="#E2C178"/>
      <rect x="132" y="0" width="22" height="18" rx="3"/><circle cx="143" cy="9" r="3" fill="#E2C178"/>
      <rect x="157" y="0" width="22" height="18" rx="3"/><circle cx="168" cy="9" r="3" fill="#E2C178"/>
      <rect x="182" y="0" width="22" height="18" rx="3"/><circle cx="193" cy="9" r="3" fill="#E2C178"/>
      <rect x="207" y="0" width="22" height="18" rx="3"/><circle cx="218" cy="9" r="3" fill="#E2C178"/>
      <rect x="236" y="0" width="22" height="18" rx="3"/><circle cx="247" cy="9" r="3" fill="#E2C178"/>
      <rect x="261" y="0" width="22" height="18" rx="3"/><circle cx="272" cy="9" r="3" fill="#E2C178"/>
      <rect x="286" y="0" width="22" height="18" rx="3"/><circle cx="297" cy="9" r="3" fill="#E2C178"/>
      <rect x="311" y="0" width="22" height="18" rx="3"/><circle cx="322" cy="9" r="3" fill="#E2C178"/>
      <rect x="340" y="0" width="22" height="18" rx="3"/><circle cx="351" cy="9" r="3" fill="#E2C178"/>
      <rect x="365" y="0" width="22" height="18" rx="3"/><circle cx="376" cy="9" r="3" fill="#E2C178"/>
      <rect x="390" y="0" width="22" height="18" rx="3"/><circle cx="401" cy="9" r="3" fill="#E2C178"/>
      <rect x="415" y="0" width="22" height="18" rx="3"/><circle cx="426" cy="9" r="3" fill="#E2C178"/>
      <circle cx="473" cy="9" r="8" fill="#D4AA50" stroke="#936D22" stroke-width="1.2"/>
    </g>
    <g transform="translate(15, 36)">
      <rect x="0" y="0" width="22" height="18" rx="3"/><circle cx="11" cy="9" r="3" fill="#E2C178"/>
      <rect x="27" y="0" width="22" height="18" rx="3"/><circle cx="38" cy="9" r="3" fill="#E2C178"/>
      <rect x="54" y="0" width="22" height="18" rx="3"/><circle cx="65" cy="9" r="3" fill="#E2C178"/>
      <rect x="81" y="0" width="22" height="18" rx="3"/><circle cx="92" cy="9" r="3" fill="#E2C178"/>
      <rect x="108" y="0" width="22" height="18" rx="3"/><circle cx="119" cy="9" r="3" fill="#E2C178"/>
      <rect x="135" y="0" width="22" height="18" rx="3"/><circle cx="146" cy="9" r="3" fill="#E2C178"/>
      <rect x="162" y="0" width="22" height="18" rx="3"/><circle cx="173" cy="9" r="3" fill="#E2C178"/>
      <rect x="189" y="0" width="22" height="18" rx="3"/><circle cx="200" cy="9" r="3" fill="#E2C178"/>
      <rect x="216" y="0" width="22" height="18" rx="3"/><circle cx="227" cy="9" r="3" fill="#E2C178"/>
      <rect x="243" y="0" width="22" height="18" rx="3"/><circle cx="254" cy="9" r="3" fill="#E2C178"/>
      <rect x="270" y="0" width="22" height="18" rx="3"/><circle cx="281" cy="9" r="3" fill="#E2C178"/>
      <rect x="297" y="0" width="22" height="18" rx="3"/><circle cx="308" cy="9" r="3" fill="#E2C178"/>
      <rect x="324" y="0" width="22" height="18" rx="3"/><circle cx="335" cy="9" r="3" fill="#E2C178"/>
      <rect x="360" y="0" width="22" height="18" rx="3"/><circle cx="371" cy="9" r="3" fill="#E2C178"/>
      <rect x="414" y="0" width="22" height="18" rx="3"/><circle cx="425" cy="9" r="3" fill="#E2C178"/>
    </g>
    <g transform="translate(15, 60)">
      <rect x="0" y="0" width="22" height="18" rx="3"/><circle cx="11" cy="9" r="3" fill="#E2C178"/>
      <rect x="37" y="0" width="22" height="18" rx="3"/><circle cx="48" cy="9" r="3" fill="#E2C178"/>
      <rect x="64" y="0" width="22" height="18" rx="3"/><circle cx="75" cy="9" r="3" fill="#E2C178"/>
      <rect x="91" y="0" width="22" height="18" rx="3"/><circle cx="102" cy="9" r="3" fill="#E2C178"/>
      <rect x="118" y="0" width="22" height="18" rx="3"/><circle cx="129" cy="9" r="3" fill="#E2C178"/>
      <rect x="145" y="0" width="22" height="18" rx="3"/><circle cx="156" cy="9" r="3" fill="#E2C178"/>
      <rect x="172" y="0" width="22" height="18" rx="3"/><circle cx="183" cy="9" r="3" fill="#E2C178"/>
      <rect x="199" y="0" width="22" height="18" rx="3"/><circle cx="210" cy="9" r="3" fill="#E2C178"/>
      <rect x="226" y="0" width="22" height="18" rx="3"/><circle cx="237" cy="9" r="3" fill="#E2C178"/>
      <rect x="253" y="0" width="22" height="18" rx="3"/><circle cx="264" cy="9" r="3" fill="#E2C178"/>
      <rect x="280" y="0" width="22" height="18" rx="3"/><circle cx="291" cy="9" r="3" fill="#E2C178"/>
      <rect x="307" y="0" width="22" height="18" rx="3"/><circle cx="318" cy="9" r="3" fill="#E2C178"/>
      <rect x="334" y="0" width="22" height="18" rx="3"/><circle cx="345" cy="9" r="3" fill="#E2C178"/>
      <rect x="375" y="0" width="22" height="18" rx="3"/><circle cx="386" cy="9" r="3" fill="#E2C178"/>
      <rect x="414" y="0" width="22" height="18" rx="3"/><circle cx="425" cy="9" r="3" fill="#E2C178"/>
    </g>
    <g transform="translate(15, 84)">
      <rect x="0" y="0" width="22" height="18" rx="3"/><circle cx="11" cy="9" r="3" fill="#E2C178"/>
      <rect x="43" y="0" width="22" height="18" rx="3"/><circle cx="54" cy="9" r="3" fill="#E2C178"/>
      <rect x="70" y="0" width="22" height="18" rx="3"/><circle cx="81" cy="9" r="3" fill="#E2C178"/>
      <rect x="97" y="0" width="22" height="18" rx="3"/><circle cx="108" cy="9" r="3" fill="#E2C178"/>
      <rect x="124" y="0" width="22" height="18" rx="3"/><circle cx="135" cy="9" r="3" fill="#E2C178"/>
      <rect x="151" y="0" width="22" height="18" rx="3"/><circle cx="162" cy="9" r="3" fill="#E2C178"/>
      <rect x="178" y="0" width="22" height="18" rx="3"/><circle cx="189" cy="9" r="3" fill="#E2C178"/>
      <rect x="205" y="0" width="22" height="18" rx="3"/><circle cx="216" cy="9" r="3" fill="#E2C178"/>
      <rect x="232" y="0" width="22" height="18" rx="3"/><circle cx="243" cy="9" r="3" fill="#E2C178"/>
      <rect x="259" y="0" width="22" height="18" rx="3"/><circle cx="270" cy="9" r="3" fill="#E2C178"/>
      <rect x="286" y="0" width="22" height="18" rx="3"/><circle cx="297" cy="9" r="3" fill="#E2C178"/>
      <rect x="313" y="0" width="22" height="18" rx="3"/><circle cx="324" cy="9" r="3" fill="#E2C178"/>
      <rect x="370" y="0" width="22" height="18" rx="3"/><circle cx="381" cy="9" r="3" fill="#C2622D"/>
      <rect x="414" y="0" width="22" height="18" rx="3"/><circle cx="425" cy="9" r="3" fill="#E2C178"/>
    </g>
    <g transform="translate(15, 108)">
      <rect x="0" y="0" width="22" height="18" rx="3"/><circle cx="11" cy="9" r="3" fill="#E2C178"/>
      <rect x="35" y="0" width="22" height="18" rx="3"/><circle cx="46" cy="9" r="3" fill="#E2C178"/>
      <rect x="66" y="0" width="22" height="18" rx="3"/><circle cx="77" cy="9" r="3" fill="#E2C178"/>
      <rect x="180" y="0" width="22" height="18" rx="3"/><circle cx="191" cy="9" r="3" fill="#E2C178"/>
      <rect x="120" y="2" width="8" height="14" rx="2" fill="#3D3A35"/>
      <rect x="245" y="2" width="8" height="14" rx="2" fill="#3D3A35"/>
      <line x1="124" y1="9" x2="249" y2="9" stroke="#E2C178" stroke-width="1.2"/>
      <rect x="295" y="0" width="22" height="18" rx="3"/><circle cx="306" cy="9" r="3" fill="#E2C178"/>
      <rect x="324" y="0" width="22" height="18" rx="3"/><circle cx="335" cy="9" r="3" fill="#E2C178"/>
      <rect x="353" y="0" width="22" height="18" rx="3"/><circle cx="364" cy="9" r="3" fill="#E2C178"/>
      <rect x="385" y="0" width="22" height="18" rx="3"/><circle cx="396" cy="9" r="3" fill="#E2C178"/>
      <rect x="412" y="0" width="22" height="18" rx="3"/><circle cx="423" cy="9" r="3" fill="#E2C178"/>
      <rect x="439" y="0" width="22" height="18" rx="3"/><circle cx="450" cy="9" r="3" fill="#E2C178"/>
    </g>
  </g>
</svg>
